<?xml version="1.0" encoding="UTF-8" standalone="no"?>
<!-- Created with Inkscape (http://www.inkscape.org/) -->

<svg
   xmlns:dc="http://purl.org/dc/elements/1.1/"
   xmlns:cc="http://creativecommons.org/ns#"
   xmlns:rdf="http://www.w3.org/1999/02/22-rdf-syntax-ns#"
   xmlns:svg="http://www.w3.org/2000/svg"
   xmlns="http://www.w3.org/2000/svg"
   xmlns:sodipodi="http://sodipodi.sourceforge.net/DTD/sodipodi-0.dtd"
   xmlns:inkscape="http://www.inkscape.org/namespaces/inkscape"
   width="2000"
   height="2000"
   viewBox="0 0 529.16665 529.16668"
   version="1.1"
   id="svg6462"
   sodipodi:docname="Rita Komik Virtualoka Standard_A.svg"
   inkscape:version="0.92.5 (2060ec1f9f, 2020-04-08)">
  <defs
     id="defs6456" />
  <sodipodi:namedview
     id="base"
     pagecolor="#ffffff"
     bordercolor="#666666"
     borderopacity="1.0"
     inkscape:pageopacity="0.0"
     inkscape:pageshadow="2"
     inkscape:zoom="0.22627417"
     inkscape:cx="905.49047"
     inkscape:cy="1351.0016"
     inkscape:document-units="mm"
     inkscape:current-layer="layer2"
     showgrid="false"
     inkscape:window-width="1366"
     inkscape:window-height="745"
     inkscape:window-x="-8"
     inkscape:window-y="-8"
     inkscape:window-maximized="1"
     units="px"
     inkscape:snap-page="true"
     inkscape:snap-bbox="true"
     inkscape:bbox-paths="true"
     inkscape:bbox-nodes="false"
     inkscape:snap-bbox-edge-midpoints="true"
     inkscape:snap-bbox-midpoints="true"
     inkscape:snap-global="false"
     showguides="true" />
  <metadata
     id="metadata6459">
    <rdf:RDF>
      <cc:Work
         rdf:about="">
        <dc:format>image/svg+xml</dc:format>
        <dc:type
           rdf:resource="http://purl.org/dc/dcmitype/StillImage" />
        <dc:title></dc:title>
      </cc:Work>
    </rdf:RDF>
  </metadata>
  <g
     inkscape:groupmode="layer"
     id="layer2"
     inkscape:label="Layer 2">
    <path
       style="fill:#000000;stroke:none;stroke-width:0.26458332px;stroke-linecap:butt;stroke-linejoin:miter;stroke-opacity:1"
       d="m 238.44611,22.010581 c -0.40045,0.01654 -0.79067,0.08262 -1.17047,0.199578 C 211.94502,30.010201 82.375976,243.90302 42.001766,391.57859 c -2.5677,9.3918 -2.6e-4,19.57775 19.87786,19.57775 19.87817,0 30.08016,-6.568 57.588194,-76.93738 1.11324,-2.84781 2.22873,-5.77165 3.40393,-8.73302 47.46292,-12.33624 133.94093,-23.6106 173.70775,-25.37361 18.69866,61.94994 35.51704,104.94014 42.76795,108.71713 17.53957,9.13634 45.14257,-5.22068 41.63467,-19.57776 C 377.51531,375.06285 280.48527,22.460706 238.44611,22.010581 Z m -1.77612,67.853327 c 0.2388,-0.0078 0.44121,0.0634 0.60565,0.216299 3.56586,3.316884 25.55943,90.565013 48.62856,168.833953 -33.3292,-2.67335 -101.96546,-1.2391 -139.53464,7.72604 35.7764,-78.35276 82.49872,-176.517834 90.30043,-176.776292 z"
       id="path1494"
       inkscape:connector-curvature="0"
       sodipodi:nodetypes="cssssccssccsccc" />
  </g>
</svg>
