<?xml version="1.0" encoding="UTF-8" standalone="no"?>
<!-- Created with Inkscape (http://www.inkscape.org/) -->

<svg
   xmlns:dc="http://purl.org/dc/elements/1.1/"
   xmlns:cc="http://creativecommons.org/ns#"
   xmlns:rdf="http://www.w3.org/1999/02/22-rdf-syntax-ns#"
   xmlns:svg="http://www.w3.org/2000/svg"
   xmlns="http://www.w3.org/2000/svg"
   xmlns:sodipodi="http://sodipodi.sourceforge.net/DTD/sodipodi-0.dtd"
   xmlns:inkscape="http://www.inkscape.org/namespaces/inkscape"
   width="2000"
   height="2000"
   viewBox="0 0 529.16665 529.16668"
   version="1.1"
   id="svg6462"
   sodipodi:docname="Rita Komik Virtualoka Standard_B.svg"
   inkscape:version="0.92.5 (2060ec1f9f, 2020-04-08)">
  <defs
     id="defs6456" />
  <sodipodi:namedview
     id="base"
     pagecolor="#ffffff"
     bordercolor="#666666"
     borderopacity="1.0"
     inkscape:pageopacity="0.0"
     inkscape:pageshadow="2"
     inkscape:zoom="0.16"
     inkscape:cx="637.84098"
     inkscape:cy="1705.0889"
     inkscape:document-units="mm"
     inkscape:current-layer="layer2"
     showgrid="false"
     inkscape:window-width="1366"
     inkscape:window-height="745"
     inkscape:window-x="-8"
     inkscape:window-y="-8"
     inkscape:window-maximized="1"
     units="px"
     inkscape:snap-page="true"
     inkscape:snap-bbox="true"
     inkscape:bbox-paths="true"
     inkscape:bbox-nodes="false"
     inkscape:snap-bbox-edge-midpoints="true"
     inkscape:snap-bbox-midpoints="true"
     inkscape:snap-global="false"
     showguides="true" />
  <metadata
     id="metadata6459">
    <rdf:RDF>
      <cc:Work
         rdf:about="">
        <dc:format>image/svg+xml</dc:format>
        <dc:type
           rdf:resource="http://purl.org/dc/dcmitype/StillImage" />
        <dc:title></dc:title>
      </cc:Work>
    </rdf:RDF>
  </metadata>
  <g
     inkscape:groupmode="layer"
     id="layer2"
     inkscape:label="Layer 2">
    <path
       style="fill:#000000;stroke:none;stroke-width:0.99999994px;stroke-linecap:butt;stroke-linejoin:miter;stroke-opacity:1"
       d="M 743.69727,74.177734 C 547.94619,74.568512 355.09863,117.3312 247.48828,172.57031 c -36.67263,18.82499 -32.61085,160.52801 21.04637,205.36939 8.48468,7.09065 23.10529,11.88208 31.32422,12.96484 -1.24409,67.71083 -7.98222,97.59047 -12.35887,221.59546 -7.98312,226.18859 -82.88015,678.865 -111.99023,807.2227 -11.07388,48.829 -24.44861,95.4567 -9.88477,108.4023 28.12501,25 796.87501,121.875 1068.75,-6.25 271.875,-128.125 256.25,-331.25 193.75,-456.25 -56.2753,-112.55068 -139.3355,-180.17449 -155.3691,-192.56641 2.553,-2.42378 5.1283,-4.9106 7.7382,-7.49023 190.0349,-187.82525 135.9291,-483.075 -23.1699,-635.54492 C 1138.102,115.76878 939.44834,73.786956 743.69727,74.177734 Z M 709.54833,319.46801 c 151.60044,-10.64684 318.91187,-15.68223 417.40287,89.54077 112.002,119.65744 76.9652,281.03872 -58.5899,331.58692 -147.84236,55.13008 -476.00211,72.16587 -603.1738,66.40625 15.17781,-270.81986 33.45741,-404.24641 35.41942,-442.34253 17.36418,-6.82363 46.09106,-15.5878 67.60156,-20.64649 57.91955,-13.62111 77.48782,-20.06062 141.33985,-24.54492 z M 1051.706,952.11278 c 98.5662,25.83977 215.7442,102.69782 222.0335,201.46232 9.4942,149.0914 -125.7286,209.3601 -220.6145,246.4249 -135.01465,52.7401 -416.63998,19.2034 -621.74609,-35.6504 5.10386,-48.8406 13.77602,-211.8785 23.16015,-371.55663 313.42168,-65.55695 532.75264,-57.56681 597.16694,-40.68019 z"
       transform="scale(0.26458333)"
       id="path1501"
       inkscape:connector-curvature="0"
       sodipodi:nodetypes="ssscsssssccsssssccsssssccs" />
  </g>
</svg>
